<svg xmlns="http://www.w3.org/2000/svg" viewBox="0 0 85.9 94.88"><title>Asset 1</title><g id="Layer_2" data-name="Layer 2"><g id="Layer_1-2" data-name="Layer 1"><path d="M14.8,41c1.3,2.2,1.8,4.8,3.1,7.1a48.46,48.46,0,0,0,4.6,6.3,8.82,8.82,0,0,0,1.4,1.5,8.86,8.86,0,0,1,1.7.8c.3.3.1.9.1.9l-.6,2.2A2.71,2.71,0,0,0,22.9,61a10.56,10.56,0,0,0-1.5,3.3l-.7,1.6c-.3.6-.8,1.1-1.1,1.6a3,3,0,0,0-.2,1.6l-2.1,2C10.3,78,2.9,86.28,0,94.88H85.9c-4.1-8.2-9.3-10.2-11.3-11.5s-3.9-2.4-5.7-3.8a45.55,45.55,0,0,1-4.8-5S61.9,73,62,71.88s1.8-1.8,1.8-1.8a15.14,15.14,0,0,0,3-2.9c.5-1,5.2-8,5.4-8.3s.8-.7,1.1-.9,4.5-3.7,4.8-6.5a4.22,4.22,0,0,0-1.5-4s2.6-1.4,2.6-3.4a2.45,2.45,0,0,0-1.9-2.4s.9-.3,1-1.9a2.73,2.73,0,0,0-1.2-2.4,3.64,3.64,0,0,0-.3-1.4c-.3-.6-1.5-2.5-1.5-2.5a.56.56,0,0,1,0-.6c.2-.3,1.9-.7,2.3-1a5.49,5.49,0,0,0,2.1-2.8,2.21,2.21,0,0,0-.6-2.2c-.3-.3-3.6-3-3.9-3.1s-2.3-1.3-2.8-1.6-3.3-1.8-3.9-2.9a7.6,7.6,0,0,1-.6-2.6c-.1-1.5-1-2.6-1.8-3.8A16.3,16.3,0,0,0,63.8,10a31,31,0,0,0-5.1-4.1,41.68,41.68,0,0,0-5.5-2.5c-.6-.2-4.6-1.1-4.6-1.1s-.4-.5-.6-.5a7.81,7.81,0,0,0-2-1.1,14.37,14.37,0,0,0-7.7-.3C36.1.78,34,2,32,2.78c-1.3.5-2.6,1-3.8,1.6l-8.5,3.7s-7,3-9.3,12.4a26.08,26.08,0,0,0,1.9,17.2A31.93,31.93,0,0,1,14.8,41Z"/></g></g></svg>