<svg width="100" height="125" xmlns="http://www.w3.org/2000/svg">

 <g>
  <title>background</title>
  <rect fill="none" id="canvas_background" height="402" width="582" y="-1" x="-1"/>
 </g>
 <g>
  <title>Layer 1</title>
  <path id="svg_1" d="m36.401,79.467c0.263,0.264 0.608,0.395 0.955,0.395c0.328,0 0.658,-0.119 0.917,-0.359l12.111,-11.213c1.504,0.637 3.139,0.971 4.785,0.971c3.309,0 6.426,-1.294 8.778,-3.647c3.465,-3.464 4.575,-8.634 2.83,-13.173c-0.164,-0.427 -0.532,-0.741 -0.979,-0.836c-0.447,-0.093 -0.912,0.043 -1.235,0.366l-6.484,6.484c-0.13,0.128 -0.241,0.126 -0.369,0l-3.89,-3.892c-0.064,-0.063 -0.078,-0.136 -0.078,-0.186s0.014,-0.121 0.076,-0.184l6.486,-6.483c0.323,-0.323 0.461,-0.788 0.367,-1.235c-0.095,-0.447 -0.41,-0.815 -0.838,-0.98c-1.405,-0.541 -2.885,-0.814 -4.402,-0.814c-3.307,0 -6.422,1.294 -8.773,3.644c-3.622,3.622 -4.643,8.965 -2.675,13.563l-11.215,12.11c-0.493,0.534 -0.477,1.361 0.036,1.873l3.597,3.596zm10.184,-16.414c0.389,-0.419 0.47,-1.037 0.206,-1.544c-1.952,-3.729 -1.238,-8.261 1.776,-11.276c1.841,-1.839 4.278,-2.853 6.864,-2.853c0.436,0 0.869,0.03 1.296,0.087l-4.818,4.817c-0.56,0.559 -0.868,1.302 -0.868,2.093c0,0.79 0.308,1.534 0.867,2.094l3.893,3.893c1.12,1.119 3.067,1.118 4.186,-0.001l4.818,-4.818c0.4,2.946 -0.589,5.981 -2.766,8.157c-1.844,1.842 -4.283,2.856 -6.87,2.856c-1.537,0 -3.062,-0.372 -4.407,-1.077c-0.506,-0.264 -1.124,-0.183 -1.544,0.206l-11.826,10.952l-1.759,-1.758l10.952,-11.828zm42.265,-25.545l-77.699,0c-1.24,0 -2.25,1.01 -2.25,2.25l0,55.201c0,1.24 1.01,2.25 2.25,2.25l32.786,0l-0.497,5.326c-0.022,0.334 -0.387,3.257 -5.916,3.257c-0.746,0 -1.35,0.603 -1.35,1.351c0,0.745 0.604,1.35 1.35,1.35l24.953,0c0.746,0 1.351,-0.604 1.351,-1.35c0,-0.748 -0.604,-1.351 -1.351,-1.351c-5.529,0 -5.894,-2.923 -5.92,-3.315l-0.492,-5.268l31.887,0c0.807,0 3.149,-0.554 3.149,-2.25l0,-55.201c-0.001,-1.239 -1.01,-2.25 -2.251,-2.25zm-0.451,45.751l-76.798,0l0,-43.051l76.799,0l0,43.051l-0.001,0z"/>
 </g>
</svg>