<svg xmlns="http://www.w3.org/2000/svg" viewBox="0 0 95 76.11"><defs><style>.cls-1{fill:none;}</style></defs><title>Asset 1</title><g id="Layer_2" data-name="Layer 2"><g id="Layer_1-2" data-name="Layer 1"><circle class="cls-1" cx="47.5" cy="60.65" r="1.85"/><path class="cls-1" d="M4,52.84H91v-49H4ZM54.43,34.71l11.51-4.93v-.06L54.43,24.78V21.49l14.89,6.83v2.85L54.43,38Zm-4.93-18h3.13L46,39.23H42.86ZM25.67,31.08V28.41l14.89-6.92v3.29L29.3,29.71v.06l11.26,4.93V38L25.67,31.08Z"/><path d="M92.17,0H2.91A2.83,2.83,0,0,0,0,2.75V62.36a2.94,2.94,0,0,0,2.91,2.88H38.06c0,.9-.32,4.75-2.15,6.62-1.44,1.47-3.45,2.85-2.67,3.56.19.44,1.09.69,3.14.69H59.49c2.33,0,3.15-.38,3.16-1h-.08V75h-.08c-.1-.77-1.66-1.91-2.84-3.11-1.83-1.87-2.11-5.73-2.15-6.62H92.17A2.87,2.87,0,0,0,95,62.36V2.75A2.77,2.77,0,0,0,92.17,0ZM47.5,62.5a1.85,1.85,0,1,1,1.85-1.85A1.84,1.84,0,0,1,47.5,62.5ZM91,52.84H4v-49H91v49Z"/><polygon points="40.56 34.71 29.3 29.77 29.3 29.71 40.56 24.78 40.56 21.49 25.67 28.41 25.67 31.08 25.67 31.08 40.56 37.99 40.56 34.71"/><polygon points="45.99 39.23 52.63 16.74 49.5 16.74 42.86 39.23 42.86 39.23 45.99 39.23"/><polygon points="69.32 28.32 54.43 21.49 54.43 24.78 65.94 29.71 65.94 29.77 54.43 34.71 54.43 37.99 69.32 31.17 69.32 28.32"/></g></g></svg>