<svg xmlns="http://www.w3.org/2000/svg" viewBox="0 0 47.1 47.1"><title>Asset 1</title><g id="Layer_2" data-name="Layer 2"><g id="Layer_1-2" data-name="Layer 1"><path d="M23.5,26.5c9.6,0,17.4-3.6,17.4-8.1v-.3h0V14.4c0-.4-.5-.7-.8-.4-3.7,3-10.1,4.6-16.6,4.6S10.6,17,6.9,14c-.3-.3-.8,0-.8.4v3.7h0v.3C6.1,22.8,13.9,26.5,23.5,26.5Z"/><ellipse cx="23.5" cy="8.1" rx="17.4" ry="8.1"/><path d="M45.6,42.2H32.1c-.2,0-.5-.2-.5-.4V41a.9.9,0,0,0-.9-.9H25.4a.47.47,0,0,1-.5-.5V37.5a.47.47,0,0,1,.5-.5c8.7-.4,15.5-3.9,15.5-8v-.3h0V25a.55.55,0,0,0-.9-.4c-3.7,3-10.1,4.6-16.5,4.6S10.7,27.6,7,24.6a.57.57,0,0,0-.9.4v3.7h0V29c0,4.2,6.8,7.6,15.5,8a.47.47,0,0,1,.5.5v2.1a.47.47,0,0,1-.5.5H16.3a.9.9,0,0,0-.9.9v.8a.46.46,0,0,1-.5.4H1.4a1.4,1.4,0,0,0,0,2.8H14.9c.2,0,.5.2.5.4v.8a.9.9,0,0,0,.9.9H30.8a.9.9,0,0,0,.9-.9v-.8a.46.46,0,0,1,.5-.4H45.7a1.37,1.37,0,0,0,1.4-1.4A1.45,1.45,0,0,0,45.6,42.2Z"/></g></g></svg>