<svg xmlns="http://www.w3.org/2000/svg" viewBox="0 0 100 98.35"><title>Asset 1</title><g id="Layer_2" data-name="Layer 2"><g id="Layer_1-2" data-name="Layer 1"><path d="M87.18,58.53a1.41,1.41,0,0,0-1.41,1.41V84.72a1.41,1.41,0,0,1-1.41,1.41H14.79a1.41,1.41,0,0,1-1.41-1.41V59.93A1.41,1.41,0,0,0,12,58.53H1.41A1.41,1.41,0,0,0,0,59.93v37a1.41,1.41,0,0,0,1.41,1.41H98.59A1.41,1.41,0,0,0,100,96.95v-37a1.41,1.41,0,0,0-1.41-1.41Z"/><path d="M59.94,40.15a2.26,2.26,0,0,1-2.25-2.25V2.25A2.26,2.26,0,0,0,55.44,0H44.56a2.26,2.26,0,0,0-2.25,2.25V37.89a2.26,2.26,0,0,1-2.25,2.25H27.17c-1.24,0-1.68.84-1,1.86L48.73,75a1.44,1.44,0,0,0,2.54,0L73.81,42c.7-1,.26-1.86-1-1.86H59.94Z"/></g></g></svg>