<svg xmlns="http://www.w3.org/2000/svg" viewBox="0 0 80.03 90.01"><defs><style>.cls-1,.cls-2{fill:none;stroke:#000;stroke-miterlimit:10;stroke-width:4px;}.cls-2{stroke-linecap:round;}</style></defs><title>Asset 1</title><g id="Layer_2" data-name="Layer 2"><g id="Layer_1-2" data-name="Layer 1"><path class="cls-1" d="M56,2H24a2,2,0,0,0-2,2v7.73H58V4A2,2,0,0,0,56,2Z"/><rect class="cls-1" x="20.01" y="79.76" width="40" height="8.25"/><path class="cls-1" d="M63,11.73H17a15,15,0,0,0-15,15v38a15,15,0,0,0,15,15H63a15,15,0,0,0,15-15v-38A15,15,0,0,0,63,11.73Z"/><path class="cls-2" d="M54,56.06"/><path class="cls-2" d="M25,56.06"/><circle cx="51.01" cy="42.75" r="4"/><circle cx="29.01" cy="42.75" r="4"/><path class="cls-2" d="M25.51,56.06s13.88,11.25,29,0"/></g></g></svg>