<svg xmlns="http://www.w3.org/2000/svg" viewBox="0 0 97 64"><title>Asset 1</title><g id="Layer_2" data-name="Layer 2"><g id="Layer_1-2" data-name="Layer 1"><path d="M0,0V64H97V0ZM4,8H69V60H4ZM93,60H73V8H93Z"/><rect x="75" y="10" width="4" height="4"/><rect x="81" y="10" width="6" height="4"/><rect x="81" y="16" width="10" height="4"/><rect x="75" y="16" width="4" height="4"/><path d="M8,31.81,13.85,12H16.6L10.76,31.81Z"/><path d="M26.76,13.37l-3,3.47,0,.08L28.18,16V18.8L23.81,18l0,.08,3,3.36L24.33,22.9l-1.56-4.23-.06,0L21.14,22.9l-2.35-1.42,2.92-3.41V18l-4.29.79V16l4.23.85,0-.06-2.9-3.44L21.22,12l1.53,4.18h.06L24.36,12Z"/></g></g></svg>