<svg xmlns="http://www.w3.org/2000/svg" viewBox="0 0 55 49.04"><title>Asset 1</title><g id="Layer_2" data-name="Layer 2"><g id="Layer_1-2" data-name="Layer 1"><path d="M41,19a4,4,0,0,0-3.86,3H30.86a4,4,0,0,0-7.72,0H16.86a4,4,0,1,0,0,2h6.28a4,4,0,0,0,7.72,0h6.28A4,4,0,1,0,41,19ZM27,25a2,2,0,1,1,1.72-1A2,2,0,0,1,27,25Zm14,0a2,2,0,1,1,2-2A2,2,0,0,1,41,25Z"/><path d="M54,0H1A1,1,0,0,0,0,1V38a1,1,0,0,0,1,1H26v8H11.89a1,1,0,1,0,0,2H42.11a1,1,0,0,0,0-2H28V39H54a1,1,0,0,0,1-1V1A1,1,0,0,0,54,0ZM53,2V6H2V2ZM2,37V8H53V37Z"/><circle cx="5" cy="4" r="1"/><circle cx="9" cy="4" r="1"/></g></g></svg>