<svg width="100" height="125" xmlns="http://www.w3.org/2000/svg" xmlns:xlink="http://www.w3.org/1999/xlink" preserveAspectRatio="none">
 <defs>
  <g id="a">
   <path id="svg_1" d="m36.6,10.05l-1.75,-0.05q-11.05,0 -11.05,13.05l0,16.55q0,5.35 -3.7,6.1l-1.1,0.55l0,7.25l0.45,0.1q0.2,0.05 0.3,0.1q0.25,0.05 0.35,0.1q2.05,0.5 2.9,1.9q0.8,1.45 0.8,4.6l0,15.5q0,7.35 2.75,10.8q2.8,3.4 8.75,3.35l2.7,0l0,-7.05l-2.1,0q-2.85,0 -3.7,-0.95q-0.8,-0.95 -0.8,-4.5l-0.05,-17.4q0,-3.6 -0.8,-5.65q-0.75,-2 -2.95,-4.25l1.75,-1.8l1.15,-2.15l0.7,-2.65l0.15,-19.1q0,-4.65 0.75,-5.8q0.75,-1.25 3.7,-1.25l2.2,0l0,-6.95q-0.45,-0.4 -1.4,-0.4m44.4,43.75l0,-7.25l-0.4,-0.1q-0.2,-0.05 -0.3,-0.1q-0.25,-0.05 -0.35,-0.1q-2.15,-0.5 -2.95,-1.9q-0.8,-1.4 -0.8,-4.6l0,-15.55q0,-7.35 -2.75,-10.75q-2.75,-3.45 -8.7,-3.35l-2.75,0l0,7l2.15,0q2.85,0 3.65,1.05q0.8,0.9 0.8,4.4l0.1,17.45q0,3.35 0.75,5.65q0.85,2 3,4.3q-2.15,1.8 -2.95,3.95q-0.8,2 -0.8,5.9l0,15.8q0,4.65 -0.8,5.8q-0.8,1.2 -3.7,1.2l-2.2,0l0,7q0.5,0.35 1.35,0.35l1.75,0.05q11.1,0 11.1,-13.05l0,-16.5q0,-5.35 3.75,-6.05l1.05,-0.6z" fill="#000000"/>
  </g>
 </defs>
 <g>
  <title>background</title>
  <rect fill="none" id="canvas_background" height="402" width="582" y="-1" x="-1"/>
 </g>
 <g>
  <title>Layer 1</title>
  <g id="svg_2">
   <use x="0" y="26" id="svg_3" xlink:href="#a"/>
  </g>
 </g>
</svg>