<svg xmlns="http://www.w3.org/2000/svg" viewBox="0 0 59.99 54"><title>Asset 1</title><g id="Layer_2" data-name="Layer 2"><g id="Layer_1-2" data-name="Layer 1"><path d="M60,17.17A1,1,0,0,0,60,17a1.17,1.17,0,0,0,0-.15.85.85,0,0,0,0-.12,1,1,0,0,0,0-.14s0,0,0-.07l0,0,0-.05-10-16a1,1,0,0,0-.16-.2h0a1,1,0,0,0-.3-.18l0,0h0A1,1,0,0,0,49,0H11a1,1,0,0,0-.31.06h0l0,0a1,1,0,0,0-.29.17h0a1,1,0,0,0-.16.2l-10,16,0,.05,0,0s0,0,0,.07a1,1,0,0,0,0,.14,1,1,0,0,0,0,.12A.79.79,0,0,0,0,17a1,1,0,0,0,0,.12.9.9,0,0,0,0,.14l0,.11,0,.06.06.08,0,.06,29,36h0a1,1,0,0,0,.3.23l.09,0A1,1,0,0,0,30,54a1,1,0,0,0,.34-.06l0,0a.91.91,0,0,0,.14-.08,1,1,0,0,0,.21-.16l0,0,29-36,0-.06.06-.08,0-.06,0-.11A1.13,1.13,0,0,0,60,17.17ZM32.09,2H47.55L42.69,15Zm8.8,14H19.09L30,2.59Zm-23.67-.87L12.42,2H27.89ZM41.59,18,29.82,49.61,18.27,18ZM49.22,3.25l8,12.75H44.47Zm-38.47,0L15.41,16H2.8ZM16.14,18,27,47.66,3.08,18ZM32.39,48.43,43.73,18H56.9Z"/></g></g></svg>