<svg xmlns="http://www.w3.org/2000/svg" viewBox="0 0 77.8 60.7"><title>Asset 1</title><g id="Layer_2" data-name="Layer 2"><g id="Layer_1-2" data-name="Layer 1"><path d="M38.9,42.8H.8c-.8,0-.8,0-.8-.8V27.1c0-1.8,0-1.4,1.5-1.4H2.7a.53.53,0,0,0,.6-.6V11.2c0-.6.1-.9.7-1.1A2.17,2.17,0,0,0,5,9,12.07,12.07,0,0,0,6.2,4.9c.1-1.5.2-3,.3-4.4,0-.3.1-.5.5-.5H8.9c.3,0,.5.1.5.4.1.9.1.9,1,.9H67.7c.7,0,.7,0,.7-.7,0-.5.2-.6.6-.6h1.5c.4,0,.6.1.6.6a29.89,29.89,0,0,0,.7,6.7,10.66,10.66,0,0,0,.7,1.9,1.79,1.79,0,0,0,1.3,1.1c.1,0,.3.3.3.5V24.9c0,.8,0,.8.8.8h2c.5,0,.7.1.7.6V42c0,.7,0,.7-.7.7C64.3,42.8,51.6,42.8,38.9,42.8ZM54.5,10.5c0,.1.1.2.1.3a18.61,18.61,0,0,0,1.6,5.7,1.21,1.21,0,0,0,.7.7,4.59,4.59,0,0,0,3.8-.3,2.3,2.3,0,0,0,1.4-2.6,2.92,2.92,0,0,0-.2-.9L60.7,9.5V9.1H61a16.32,16.32,0,0,1,1.9.9,9.17,9.17,0,0,1,2.6,3.2,5.28,5.28,0,0,1-.6,6.3,10.71,10.71,0,0,0-1.3,2.1,8.49,8.49,0,0,0-1.2,3.8.53.53,0,0,0,.6.6h4.7a.53.53,0,0,0,.6-.6V7a.53.53,0,0,0-.6-.6H9.9c-.8,0-.8,0-.8.8V25.1c0,.9,0,.9.9.9H20.3c.4,0,.6-.1.6-.6V20.8a.75.75,0,0,0-.1-.5c-.6-.4-.6-.9-.7-1.5l-.3-2.1c-.2-.7-.6-1-1.3-.8a9.14,9.14,0,0,0-1.4.7,17.58,17.58,0,0,0-3.9,3.8,2.74,2.74,0,0,1-1.8,1,.9.9,0,0,1-.5-.1.9.9,0,0,1,.1-.5c.9-1.5,1.8-3,2.8-4.5a12.59,12.59,0,0,1,5.3-4.4,20.88,20.88,0,0,1,6.5-1.3,3.15,3.15,0,0,1,2.3.5,3.78,3.78,0,0,0,4.4.6,3.81,3.81,0,0,1,1-.3c1.1-.1,2.3.2,2.4,1.6a6.08,6.08,0,0,1-.6,3.5,1.23,1.23,0,0,1-1.1.7,2.45,2.45,0,0,1-2-.5,10.14,10.14,0,0,0-1.3-.9,2.6,2.6,0,0,0-3.8,1.7c-.1.6-.1,1.3-.2,1.9a.82.82,0,0,1-.4.6.75.75,0,0,0-.4.7V25c0,.7,0,.7.7.7H37.3c.7,0,.8,0,.8-.8,0-3.5-.1-7,0-10.4a5.6,5.6,0,0,1,3.3-5.1,5.37,5.37,0,0,1,7.6,4,23,23,0,0,1,.2,3.7v7.8c0,.8,0,.8.8.8h5.8a.55.55,0,0,0,.6-.4,2.83,2.83,0,0,0-.6-2.5,17,17,0,0,0-1.9-1.9,6,6,0,0,1-1.9-3,9.29,9.29,0,0,1,1.8-7.2A1,1,0,0,0,54.5,10.5Zm-7,10.3h0V16.4c0-.8-.4-1.3-1.2-1.3a1.18,1.18,0,0,0-1.2,1.3v8.9c0,.4.1.6.5.6h1.3c.5,0,.6-.1.6-.6Zm-7-.2v4.5c0,.4.1.6.5.5h1.2c.5,0,.6-.1.6-.6V16.1c0-.8-.4-1.3-1.1-1.3s-1.1.4-1.1,1.2C40.5,17.7,40.5,19.2,40.5,20.6ZM6.4,32.6a1.93,1.93,0,0,0-1.8,1.8,1.88,1.88,0,0,0,1.8,1.9,2,2,0,0,0,1.9-1.9A1.71,1.71,0,0,0,6.4,32.6Zm66.7,1.8a1.74,1.74,0,0,0-1.7-1.9,1.69,1.69,0,0,0-1.7,1.9,1.74,1.74,0,0,0,1.7,1.9A1.8,1.8,0,0,0,73.1,34.4Z"/><path d="M38.9,44.6h38c.9,0,.9,0,.9.9V59.9c0,.8,0,.8-.8.8H.9c-.8,0-.8,0-.8-.8V45.2c0-.7,0-.7.8-.7H9.1c9.9.1,19.9.1,29.8.1ZM8.3,52.8a1.82,1.82,0,0,0-1.8-1.9,1.9,1.9,0,0,0-.1,3.8A1.84,1.84,0,0,0,8.3,52.8Zm61.4-.1a1.74,1.74,0,0,0,1.7,1.9,1.66,1.66,0,0,0,1.7-1.8c0-1.2-.6-1.9-1.7-1.9S69.7,51.5,69.7,52.7Z"/></g></g></svg>